<?xml version="1.0" encoding="UTF-8"?>
<svg version="1.1" xmlns="http://www.w3.org/2000/svg" width="4167" height="4167">
<path d="M0 0 C0.60649384 0.22224243 1.21298767 0.44448486 1.83786011 0.67346191 C3.14847078 1.15603779 4.45571228 1.64785044 5.75964355 2.14819336 C8.68520077 3.26878177 11.6291048 4.33750623 14.57202148 5.41149902 C16.17719242 5.99782338 17.78150661 6.58649794 19.38500977 7.17736816 C29.10136332 10.7534264 38.89324907 14.10495151 48.6953125 17.4375 C49.66778931 17.76835602 50.64026611 18.09921204 51.64221191 18.44009399 C119.47196605 41.47941025 188.0060539 62.48085464 256.9453125 81.9375 C258.00059143 82.23575684 259.05587036 82.53401367 260.14312744 82.84130859 C318.22959418 99.25086989 376.57807714 114.59340215 435.18823242 129.01159668 C438.79374547 129.90014748 442.3980595 130.79338278 446.00195312 131.68847656 C540.55850043 155.15392608 636.11608856 174.93520683 836.9453125 208.9375 C838.01495617 209.09672314 838.01495617 209.09672314 839.1062088 209.2591629 C914.01053577 220.40495204 989.2325896 229.43850884 1174.70495605 242.78320312 C1177.83014184 242.93201589 1180.95461169 243.09119725 1184.07910156 243.25390625 C1219.47522327 245.07295029 1254.88069361 245.14788202 1290.31531143 245.18292618 C1294.05432213 245.18740596 1297.7933143 245.19510355 1301.53231812 245.20346069 C1347.09099006 245.29138699 1392.60905758 244.21944279 1438.0703125 241.125 C1439.96598969 240.99902939 1439.96598969 240.99902939 1441.89996338 240.87051392 C1552.64834643 233.47742523 1663.0554739 217.33148109 1898.9453125 142.9375 C1900.12722168 142.44491699 1901.30913086 141.95233398 1902.52685547 141.44482422 C1949.1801337 122.45411722 1949.1801337 122.45411722 1992.9453125 97.9375 C1998.41617671 97.61528539 2003.34296666 98.21188458 2008.68481445 99.42773438 C2009.78552875 99.66769119 2009.78552875 99.66769119 2010.90847969 99.91249561 C2013.33540253 100.44389233 2015.75943799 100.9873812 2018.18359375 101.53125 C2019.91613054 101.91379139 2021.64880508 102.29570936 2023.38160706 102.67704773 C2028.0402788 103.70505554 2032.69630683 104.74457897 2037.35170746 105.78728867 C2040.26891152 106.43998329 2043.18674759 107.08977554 2046.10479736 107.73867798 C2082.14474551 115.75585145 2118.0920948 124.12352107 2153.9453125 132.9375 C2154.95314915 133.18522282 2154.95314915 133.18522282 2155.98134613 133.43795013 C2176.65681343 138.52215964 2197.30915608 143.69608662 2217.9453125 148.9375 C2219.13022278 149.23829468 2220.31513306 149.53908936 2221.53594971 149.84899902 C2256.48213567 158.72844396 2291.28079526 168.10501318 2325.99981689 177.83361816 C2330.14690145 178.99481678 2334.29586442 180.14923429 2338.44482422 181.30371094 C2344.96396897 183.11829601 2351.47998516 184.94373333 2357.99288082 186.78062439 C2361.47190766 187.76178906 2364.95180326 188.73947435 2368.43453979 189.70739746 C2372.30409855 190.78328857 2376.16776438 191.87906214 2380.03125 192.9765625 C2381.16312241 193.28850555 2382.29499481 193.60044861 2383.46116638 193.92184448 C2395.39246039 197.34875724 2407.05089273 201.7044273 2413.62890625 212.76953125 C2424.9505103 234.3538843 2420.83932985 259.91176121 2414.02734375 282.3671875 C2403.17421005 316.83545603 2386.6410475 349.16213924 2367.80615234 379.89941406 C2366.09505811 382.69301897 2364.40239747 385.49682501 2362.71484375 388.3046875 C2350.74125073 408.08747414 2337.61429453 427.28850775 2323.9453125 445.9375 C2323.43226563 446.64068359 2322.91921875 447.34386719 2322.390625 448.06835938 C2306.96204532 469.20266955 2290.97138947 489.87017486 2274.41748047 510.13330078 C2273.12259739 511.72023046 2271.83240772 513.31098737 2270.54296875 514.90234375 C2265.91704105 520.59901059 2261.17958045 526.18858581 2256.38647461 531.74438477 C2253.34189326 535.28098054 2250.36864213 538.86172562 2247.4453125 542.5 C2243.093951 547.864042 2238.43241074 552.89866247 2233.72265625 557.9453125 C2231.56453531 560.25990262 2229.4535744 562.60645746 2227.3828125 565 C2223.15676362 569.88093297 2218.76668028 574.61126731 2214.39355469 579.35986328 C2212.96015494 580.92133145 2211.53371594 582.4888616 2210.109375 584.05859375 C2205.27327128 589.38033132 2200.37881236 594.60426785 2195.2109375 599.609375 C2193.315852 601.55673872 2191.54933483 603.53914365 2189.7800293 605.59838867 C2186.11799402 609.79508738 2182.26756429 613.76014386 2178.32421875 617.69140625 C2177.62062729 618.39595444 2176.91703583 619.10050262 2176.19212341 619.82640076 C2174.71516602 621.30403367 2173.23696508 622.78042457 2171.75756836 624.25561523 C2169.51366165 626.49416481 2167.27514546 628.73800473 2165.03710938 630.98242188 C2163.59146632 632.42740404 2162.14551305 633.87207592 2160.69921875 635.31640625 C2160.0406337 635.97701553 2159.38204865 636.63762482 2158.70350647 637.31825256 C2154.82463726 641.17794205 2150.83774697 644.85372976 2146.68516541 648.41783142 C2144.32260167 650.48140465 2142.13295634 652.69073065 2139.9453125 654.9375 C2136.52224459 658.39681825 2133.03572647 661.66667746 2129.33984375 664.828125 C2125.97420973 667.79295758 2122.71565496 670.86831114 2119.4453125 673.9375 C2114.35831192 678.70292991 2109.24947289 683.41336319 2103.9453125 687.9375 C2102.9242844 688.81227272 2101.90347179 689.68729699 2100.8828125 690.5625 C2099.11485631 692.07828689 2097.34648282 693.59357027 2095.57666016 695.10717773 C2091.7592749 698.37365754 2087.95997927 701.65993716 2084.17114258 704.95947266 C2077.52620721 710.7437969 2070.79602338 716.39709075 2063.9453125 721.9375 C2062.19475845 723.37432524 2060.44477157 724.81184173 2058.6953125 726.25 C2048.22253551 734.81321082 2037.65413546 743.24743072 2026.89501953 751.44873047 C2024.62582621 753.18145535 2022.3618931 754.92095983 2020.09765625 756.66015625 C2008.85072379 765.28370884 1997.49542651 773.72466498 1985.9453125 781.9375 C1985.22891602 782.44764648 1984.51251953 782.95779297 1983.77441406 783.48339844 C1936.59773302 817.04119095 1887.73022603 848.11927421 1836.9453125 875.9375 C1835.945 876.48647949 1834.9446875 877.03545898 1833.9140625 877.60107422 C1806.86908179 892.4042341 1779.52515344 906.6557746 1751.42626953 919.35888672 C1748.4570384 920.70543241 1745.49448696 922.06539102 1742.53509521 923.43339539 C1661.45858715 960.88971144 1576.1222599 989.44685481 1260.16760254 1041.83035278 C1258.61249656 1041.90533187 1257.0575737 1041.98416297 1255.50280762 1042.06588745 C1234.36701288 1043.16488415 1213.22816525 1043.1370207 1192.0703125 1043.125 C1191.13813778 1043.12488041 1190.20596306 1043.12476082 1189.24554062 1043.1246376 C1144.7120712 1043.11741007 1144.7120712 1043.11741007 1124.7578125 1042.125 C1123.9483316 1042.08607635 1123.13885071 1042.04715271 1122.30484009 1042.00704956 C1113.21006979 1041.55222471 1104.18432272 1040.77524793 1095.1328125 1039.78515625 C1075.63907812 1037.71861447 1061.57653114 1036.83308801 1043.82128906 1046.47802734 C1038.57951466 1049.13807211 1033.05033986 1051.00580255 1027.5078125 1052.9375 C1025.75791016 1053.55359131 1025.75791016 1053.55359131 1023.97265625 1054.18212891 C979.84715385 1069.53143165 934.41193976 1079.80086333 888.0078125 1085.1875 C886.0582666 1085.41433472 886.0582666 1085.41433472 884.06933594 1085.64575195 C879.69791961 1086.12257989 875.32485027 1086.54355803 870.9453125 1086.9375 C869.52810913 1087.0683046 869.52810913 1087.0683046 868.08227539 1087.20175171 C847.83761153 1089.01746946 827.68326137 1089.30046896 807.37384415 1089.25555801 C804.7818114 1089.2499162 802.1897852 1089.24709635 799.5977478 1089.24447632 C774.74987481 1089.20797859 750.04965088 1088.81914745 725.31921387 1086.1875 C722.83646264 1085.92603682 720.35258754 1085.67863149 717.86816406 1085.43359375 C635.34982316 1077.21934246 554.1073253 1058.28469224 474.9453125 1033.9375 C473.99215149 1033.64464111 473.03899048 1033.35178223 472.0569458 1033.05004883 C369.75907077 1001.54990026 270.1680767 961.70224308 79.78222656 876.73681641 C77.15746683 875.5054112 74.5317506 874.27607764 71.90527344 873.04833984 C52.28126347 863.87452818 32.7499028 854.52507759 13.28277588 845.02304077 C8.7478838 842.81111777 4.20535346 840.61614393 -0.34375 838.43359375 C-19.24739783 829.35542092 -38.01723151 820.01065115 -56.77621841 810.63820267 C-58.90218551 809.57623781 -61.02849399 808.51495927 -63.15487671 807.4538269 C-77.27065841 800.40788968 -91.36008407 793.32969333 -105.29345703 785.92724609 C-109.83939065 783.51324525 -114.43569778 781.20807803 -119.0546875 778.9375 C-126.18456861 775.40003825 -133.25246082 771.76351437 -140.28393555 768.03466797 C-145.14826542 765.45847539 -150.02732649 762.91281984 -154.921875 760.39453125 C-155.52480881 760.08423981 -156.12774261 759.77394836 -156.74894714 759.45425415 C-157.36022964 759.13967255 -157.97151215 758.82509094 -158.60131836 758.50097656 C-169.31724697 752.98599178 -179.97394135 747.39035723 -190.52661133 741.56689453 C-198.46199013 737.21086884 -206.50089541 733.06865323 -214.5546875 728.9375 C-224.24877896 723.9634425 -233.88346677 718.91140675 -243.42675781 713.65185547 C-251.83649895 709.0275772 -260.31773124 704.5428443 -268.8046875 700.0625 C-282.21031194 692.98304453 -295.57854564 685.83911861 -308.91601562 678.63183594 C-312.16353468 676.87874149 -315.41343834 675.13014214 -318.6640625 673.3828125 C-329.70549166 667.44715284 -340.73256185 661.48712095 -351.73193359 655.47387695 C-359.88227224 651.02215345 -368.05869474 646.6195516 -376.23779297 642.22094727 C-386.53231586 636.68389173 -396.81105463 631.11798277 -407.08691406 625.54638672 C-412.07541406 622.8420255 -417.06510056 620.1398551 -422.0546875 617.4375 C-428.03182927 614.20028623 -434.00874393 610.96265799 -439.984375 607.72265625 C-444.9793669 605.01458752 -449.9758249 602.30923943 -454.97314453 599.60546875 C-457.05007722 598.48127257 -459.12656556 597.35625513 -461.20263672 596.23046875 C-476.61541372 587.87451316 -492.11510711 579.706858 -507.69873047 571.67431641 C-510.98118799 569.97553837 -514.2554388 568.26197079 -517.52734375 566.54296875 C-545.30498194 551.97427739 -573.57750423 538.50230525 -602.1953125 525.67236328 C-605.82188283 524.04504159 -609.43893357 522.39732229 -613.0546875 520.74609375 C-671.27290156 494.24785481 -731.18470886 471.55539234 -792.0546875 451.9375 C-792.80008789 451.69684814 -793.54548828 451.45619629 -794.31347656 451.20825195 C-883.58284471 422.44303619 -975.84187044 402.90998143 -1096.0546875 391.9375 C-1096.81948425 391.88529297 -1097.58428101 391.83308594 -1098.37225342 391.77929688 C-1145.42908749 388.60072564 -1193.00823312 388.55604413 -1240.0546875 391.9375 C-1241.98988251 392.07605408 -1241.98988251 392.07605408 -1243.96417236 392.21740723 C-1309.44170015 396.92936892 -1374.78240217 402.67989203 -1439.19580078 415.80444336 C-1439.90410538 415.94797241 -1440.61240997 416.09150146 -1441.34217834 416.23937988 C-1443.23230698 416.6240952 -1445.12121102 417.01481353 -1447.01000977 417.40600586 C-1450.0546875 417.9375 -1450.0546875 417.9375 -1454.0546875 417.9375 C-1449.76204361 401.19618883 -1432.38750671 388.37600515 -1419.14111328 378.51367188 C-1417.49651428 377.27127412 -1415.86798196 376.00760802 -1414.24560547 374.73632812 C-1406.21932158 368.44906719 -1397.93940318 362.6734496 -1389.4296875 357.0625 C-1388.10399877 356.18396843 -1386.7783976 355.30530472 -1385.45288086 354.42651367 C-1375.41300048 347.78266842 -1365.31265829 341.24068265 -1355.0546875 334.9375 C-1354.46961426 334.57785156 -1353.88454102 334.21820312 -1353.28173828 333.84765625 C-1348.89892059 331.16610545 -1344.47908899 328.54948531 -1340.0546875 325.9375 C-1339.05211914 325.34340332 -1338.04955078 324.74930664 -1337.01660156 324.13720703 C-1257.52679309 277.06816265 -1174.16935238 240.52582549 -700.0546875 102.9375 C-699.03713001 102.71668133 -699.03713001 102.71668133 -697.99901581 102.49140167 C-623.75663787 86.38749682 -549.23724065 71.78164129 -296.0546875 30.9375 C-295.15384682 30.81072624 -294.25300613 30.68395248 -293.32486725 30.5533371 C-217.63542826 19.90852533 -141.78882985 10.66018168 -65.78272247 2.58673859 C-62.64484735 2.25294236 -59.50719238 1.9171366 -56.36956787 1.58099365 C-51.45282468 1.05514497 -46.53531486 0.53713388 -41.61709023 0.0253315 C-39.81893347 -0.16263719 -38.02099798 -0.35273774 -36.2233181 -0.5452137 C-9.08133086 -3.44373589 -9.08133086 -3.44373589 0 0 Z " fill="#FEFEFE" transform="translate(1600.0546875,851.0625)"/>
<path d="M0 0 C1.28438965 0.48215973 1.28438965 0.48215973 2.59472656 0.97406006 C29.32654189 11.02699342 55.79236142 21.65027225 82 33 C82.63556824 33.27523499 83.27113647 33.55046997 83.92596436 33.83404541 C92.32071248 37.47562562 100.67293471 41.20643562 109 45 C110.13646973 45.51675293 111.27293945 46.03350586 112.44384766 46.56591797 C191.77053504 82.77053504 191.77053504 82.77053504 202 93 C194.93659009 97.60312107 187.54935592 101.51645366 180.0625 105.375 C179.38872314 105.72248291 178.71494629 106.06996582 178.02075195 106.42797852 C138.86567995 126.55689773 97.98967182 143.22271534 56.27557373 157.23431396 C54.01442109 157.99514759 51.7553221 158.76182212 49.49658203 159.52978516 C-44.6039867 191.44891907 -143.52276294 209.29995016 -376.8125 226.5625 C-378.21474823 226.59376984 -378.21474823 226.59376984 -379.64532471 226.62567139 C-472.14073419 228.62549916 -564.63288424 224.52083485 -1210.95968628 119.5067215 C-1213.01142273 118.99716311 -1215.06340981 118.48862629 -1217.11547852 117.98040771 C-1293.92990002 98.9531639 -1370.20377174 77.77710725 -1460 50 C-1460.87992615 49.7253894 -1461.75985229 49.45077881 -1462.66644287 49.16784668 C-1474.5536136 45.45457907 -1486.42236985 41.68534856 -1498.27856445 37.87438965 C-1501.12211336 36.96076532 -1503.9663262 36.049226 -1506.81054688 35.13769531 C-1529.79150518 27.76432881 -1552.68602715 20.18122074 -1575.4375 12.125 C-1576.9144635 11.60454605 -1576.9144635 11.60454605 -1578.42126465 11.07357788 C-1581.17784664 10.10010064 -1583.93126397 9.11823873 -1586.68359375 8.1328125 C-1587.50192184 7.8439769 -1588.32024994 7.5551413 -1589.16337585 7.2575531 C-1594.76883327 5.23116673 -1594.76883327 5.23116673 -1597 3 C-1514.68205778 -28.85837964 -1425.6169133 -48.98372154 0 0 Z " fill="#EF3F24" transform="translate(3302,821)"/>
<path d="M0 0 C3.10547102 0.01836977 6.210642 0.02050753 9.31616211 0.02026367 C27.94600616 0.05141372 46.46331574 0.69456552 64.97045898 2.89331055 C65.70263641 2.97917419 66.43481384 3.06503784 67.18917847 3.15350342 C109.43951782 8.15225582 150.93248065 17.03152127 191.40795898 30.20581055 C192.07748596 30.42239319 192.74701294 30.63897583 193.43682861 30.86212158 C245.62114804 47.75713522 296.39325778 70.29983526 343.88256836 97.75952148 C346.976044 99.53115235 350.09929623 101.2437842 353.22827148 102.95166016 C364.85889287 109.31020216 376.14956052 116.21383275 387.40795898 123.20581055 C388.30498535 123.76252441 389.20201172 124.31923828 390.1262207 124.89282227 C434.8643067 152.76663436 477.62764205 184.02486514 518.43505859 217.36181641 C522.83912368 220.95357972 527.29413438 224.47086266 531.78295898 227.95581055 C536.70885849 231.7891259 541.39006088 235.80198844 545.98608398 240.0300293 C548.54053064 242.32491122 551.17268005 244.48772189 553.84545898 246.64331055 C558.62800886 250.51105482 563.15858963 254.59441962 567.68139648 258.76049805 C570.23412108 261.04990435 572.84893753 263.19818927 575.53295898 265.33081055 C581.37878029 270.04111261 586.79153263 275.17578499 592.21899414 280.35864258 C596.24336829 284.19746572 600.33227246 287.92797401 604.53466797 291.57104492 C607.27109415 293.95904306 609.93549088 296.4208442 612.59545898 298.89331055 C613.72692922 299.941531 614.8584408 300.98970684 615.98999023 302.0378418 C616.84197998 302.82795654 616.84197998 302.82795654 617.71118164 303.6340332 C619.86831923 305.63225649 622.03104212 307.62437107 624.19384766 309.61645508 C629.56952002 314.57010123 634.93129026 319.53874692 640.28295898 324.51831055 C640.88930176 325.0808252 641.49564453 325.64333984 642.12036133 326.22290039 C645.75003518 329.60561701 649.28998095 333.05881056 652.76708984 336.59838867 C654.48198707 338.27832965 656.26526185 339.84045439 658.09545898 341.39331055 C662.22738722 344.94757115 666.04226914 348.778998 669.84423828 352.67919922 C672.53930334 355.42182693 675.30360479 358.01154873 678.22045898 360.51831055 C683.66963631 365.23195253 688.64883713 370.3996047 693.69702148 375.53393555 C697.15380329 379.02635427 700.61400728 382.44385296 704.34545898 385.64331055 C710.2220608 390.69369706 715.55226452 396.30684798 720.98608398 401.82299805 C724.70013746 405.57122993 728.4007925 409.26994692 732.40795898 412.70581055 C738.26762853 417.73006536 743.57332707 423.32822966 748.98608398 428.82299805 C753.35206228 433.22915406 757.76999038 437.46175915 762.47827148 441.4987793 C766.66036419 445.19832285 770.50010325 449.260692 774.40795898 453.24487305 C778.32357857 457.2063788 782.34416908 460.94987773 786.56420898 464.5847168 C789.13866345 466.84827316 791.51269838 469.25283282 793.90795898 471.70581055 C797.63798521 475.49261628 801.47029977 479.07978364 805.51342773 482.5300293 C808.19257445 484.89983124 810.67437552 487.44602767 813.15795898 490.01831055 C815.10486124 491.91113219 817.09242846 493.69270812 819.14233398 495.47143555 C823.42225135 499.1891436 827.54659121 503.05360012 831.65795898 506.95581055 C840.98719704 515.77224067 850.42345275 524.45833446 859.98217773 533.02612305 C861.61549829 534.49374441 863.24301442 535.96784841 864.86499023 537.44799805 C869.07996086 541.28461698 873.3455167 545.00284417 877.78295898 548.58081055 C881.79622183 551.82533572 885.63211283 555.19328238 889.40795898 558.70581055 C893.94135122 562.91927544 898.61746137 566.8887435 903.43920898 570.76831055 C906.9307755 573.63507042 910.32324859 576.6035337 913.72045898 579.58081055 C919.02304661 584.21379499 924.4277746 588.65845658 929.99487305 592.96875 C934.73091069 596.64401592 939.35707229 600.44060755 943.97045898 604.26831055 C950.37167231 609.56618488 956.84686218 614.72044874 963.47290039 619.73608398 C965.78416485 621.49154853 968.0862287 623.25878705 970.38842773 625.02612305 C979.66607253 632.13887209 988.97634786 639.16623297 998.5403595 645.88937378 C1000.42003439 647.21432228 1002.29479207 648.54596321 1004.16845703 649.87939453 C1014.32425354 657.09672652 1024.59586107 664.11973771 1034.97045898 671.01831055 C1035.75032166 671.53738983 1036.53018433 672.05646912 1037.3336792 672.59127808 C1096.80941326 712.14463187 1159.61393371 744.96940082 1226.40795898 770.20581055 C1227.03688049 770.44366272 1227.665802 770.68151489 1228.31378174 770.92657471 C1278.36665853 789.79687759 1330.51330099 803.77420954 1383.21557617 812.82617188 C1385.41909286 813.20773852 1387.62073183 813.59872079 1389.82202148 813.99291992 C1422.75958436 819.88573119 1455.80169495 823.84579525 1489.15795898 826.45581055 C1490.21870636 826.53889465 1491.27945374 826.62197876 1492.37234497 826.70758057 C1495.46197285 826.94659116 1498.55199125 827.17936517 1501.64233398 827.40893555 C1502.51931442 827.47537262 1503.39629486 827.54180969 1504.29985046 827.61026001 C1507.33492485 827.82910357 1510.37054609 828.02198686 1513.40795898 828.20581055 C1514.10922094 828.24875181 1514.8104829 828.29169308 1515.53299522 828.33593559 C1530.89736475 829.24911323 1546.22735844 829.33714288 1561.61499023 829.3034668 C1564.16330436 829.30159644 1566.71161885 829.30017546 1569.25993347 829.29917908 C1575.21974993 829.29578589 1581.17954944 829.2879519 1587.13935727 829.27782959 C1593.94019587 829.26653691 1600.74103552 829.26112533 1607.5418812 829.25613415 C1621.49725086 829.24576429 1635.45260387 829.22824813 1649.40795898 829.20581055 C1644.50168153 832.99842172 1639.16278312 834.90206711 1633.40795898 837.14331055 C1632.18262451 837.62131104 1630.95729004 838.09931152 1629.69482422 838.59179688 C1560.0601471 865.47507948 1485.05837292 881.20652645 1410.25952148 881.40893555 C1408.64800489 881.4159568 1407.03648858 881.42304363 1405.42497253 881.43019104 C1400.29429735 881.44961924 1395.16366723 881.45462617 1390.03295898 881.45581055 C1388.72110437 881.45647333 1388.72110437 881.45647333 1387.38274765 881.45714951 C1361.42235724 881.46402879 1335.62243525 881.20559144 1309.78186035 878.45581055 C1307.29910912 878.19434736 1304.81523402 877.94694203 1302.33081055 877.7019043 C1219.81246964 869.48765301 1138.56997178 850.55300279 1059.40795898 826.20581055 C1058.45479797 825.91295166 1057.50163696 825.62009277 1056.51959229 825.31835938 C954.22171726 793.81821081 854.63072319 753.97055363 664.24487305 669.00512695 C661.62011331 667.77372174 658.99439708 666.54438819 656.36791992 665.31665039 C636.74390995 656.14283873 617.21254929 646.79338814 597.74542236 637.29135132 C593.21053028 635.07942832 588.66799994 632.88445448 584.11889648 630.7019043 C565.21524866 621.62373147 546.44541498 612.2789617 527.68642807 602.90651321 C525.56046097 601.84454836 523.4341525 600.78326982 521.30776978 599.72213745 C507.19198807 592.67620023 493.10256241 585.59800388 479.16918945 578.19555664 C474.62325583 575.7815558 470.0269487 573.47638857 465.40795898 571.20581055 C458.27807787 567.6683488 451.21018567 564.03182492 444.17871094 560.30297852 C439.31438107 557.72678594 434.43532 555.18113038 429.54077148 552.6628418 C428.93783768 552.35255035 428.33490387 552.04225891 427.71369934 551.7225647 C427.10241684 551.40798309 426.49113434 551.09340149 425.86132812 550.76928711 C415.14539952 545.25430232 404.48870513 539.65866778 393.93603516 533.83520508 C386.00065635 529.47917939 377.96175107 525.33696378 369.90795898 521.20581055 C360.21386752 516.23175305 350.57917971 511.1797173 341.03588867 505.92016602 C332.62614753 501.29588775 324.14491524 496.81115484 315.65795898 492.33081055 C302.25233455 485.25135508 288.88410084 478.10742916 275.54663086 470.90014648 C272.29911181 469.14705204 269.04920814 467.39845269 265.79858398 465.65112305 C254.75715482 459.71546339 243.73008464 453.75543149 232.73071289 447.7421875 C224.58037424 443.290464 216.40395174 438.88786215 208.22485352 434.48925781 C197.93033062 428.95220227 187.65159185 423.38629332 177.37573242 417.81469727 C172.38723243 415.11033605 167.39754593 412.40816565 162.40795898 409.70581055 C156.43081721 406.46859678 150.45390255 403.23096854 144.47827148 399.9909668 C139.48327959 397.28289806 134.48682158 394.57754998 129.48950195 391.8737793 C127.41256926 390.74958312 125.33608093 389.62456567 123.26000977 388.4987793 C107.84723277 380.14282371 92.34753937 371.97516855 76.76391602 363.94262695 C73.48145849 362.24384892 70.20720768 360.53028133 66.93530273 358.8112793 C39.15766454 344.24258794 10.88514225 330.7706158 -17.73266602 317.94067383 C-21.35923635 316.31335213 -24.97628708 314.66563283 -28.59204102 313.0144043 C-86.81025507 286.51616535 -146.72206237 263.82370289 -207.59204102 244.20581055 C-208.33744141 243.96515869 -209.0828418 243.72450684 -209.85083008 243.4765625 C-299.12019823 214.71134674 -391.37922396 195.17829198 -511.59204102 184.20581055 C-512.35683777 184.15360352 -513.12163452 184.10139648 -513.90960693 184.04760742 C-560.96644101 180.86903619 -608.54558664 180.82435467 -655.59204102 184.20581055 C-657.52723602 184.34436462 -657.52723602 184.34436462 -659.50152588 184.48571777 C-724.98317391 189.19797597 -790.44925896 194.76223999 -854.82104492 208.16064453 C-855.53115723 208.30598129 -856.24126953 208.45131805 -856.97290039 208.60105896 C-858.87018678 208.99041787 -860.76561848 209.38878424 -862.66088867 209.7878418 C-865.59204102 210.20581055 -865.59204102 210.20581055 -868.59204102 209.20581055 C-830.8154684 194.56701849 -792.57815692 181.10485403 -754.30102539 167.83959961 C-751.18620367 166.75998136 -748.07297317 165.67596736 -744.96118164 164.58764648 C-659.66317718 134.76706301 -572.34497689 110.06858721 -482.90789795 96.55609131 C-480.75347909 96.23022857 -478.59969724 95.90046431 -476.44604492 95.56958008 C-458.25831276 92.80254161 -440.03952981 90.95834098 -421.70581055 89.53051758 C-417.91457242 89.23490555 -414.12664502 88.905683 -410.33813477 88.5769043 C-374.67034836 85.68426243 -338.22718159 85.97860943 -302.59204102 89.20581055 C-301.89153625 89.26897461 -301.19103149 89.33213867 -300.46929932 89.3972168 C-255.4745419 93.49895924 -210.7608593 101.77226377 -167.59204102 115.20581055 C-165.78775635 115.76606934 -165.78775635 115.76606934 -163.94702148 116.33764648 C-114.16715011 131.97400728 -65.33890973 154.76861745 -23.30786133 185.93432617 C-21.43767177 187.32020369 -19.55770663 188.69227832 -17.67797852 190.06518555 C-0.06003476 203.01756632 16.05111522 217.66129205 31.5 233.11254883 C33.10000417 234.71034947 34.70789513 236.29992605 36.31616211 237.8894043 C42.05018053 243.59300702 47.40691695 249.39301966 52.42651367 255.74462891 C54.51841197 258.34300578 56.71823145 260.80827465 58.97045898 263.26831055 C62.49840836 267.14784251 65.80841478 271.13771271 69.05639648 275.25268555 C80.56307668 289.70293509 92.36510453 303.95351922 104.92358398 317.50268555 C106.96536997 319.72425144 108.94940182 321.97400072 110.90795898 324.26831055 C117.85936339 332.24587465 125.39784396 339.45991762 133.68530273 346.03393555 C135.45620266 347.44659029 137.20060351 348.89334621 138.91186523 350.37768555 C166.91960597 374.49427452 204.57322672 387.62540469 241.40795898 386.20581055 C265.21969995 384.33297699 286.38613116 375.21080493 302.74780273 357.7019043 C321.84324035 334.86801249 325.05621878 307.65135475 323.16577148 278.8737793 C320.67667853 254.21143997 311.08596335 229.88725823 299.40795898 208.20581055 C299.05620605 207.54242676 298.70445313 206.87904297 298.34204102 206.19555664 C293.07656764 196.30593271 287.18282177 187.12570849 280.40795898 178.20581055 C279.97225586 177.63121094 279.53655273 177.05661133 279.08764648 176.46459961 C267.98807497 161.9166963 256.09510651 147.6581603 243.01733398 134.8503418 C241.40345033 133.2012034 239.93827349 131.48533835 238.47045898 129.70581055 C235.71932122 126.42785916 232.65740351 123.71359363 229.40014648 120.94799805 C227.53290163 119.31507412 225.81533502 117.61651916 224.09545898 115.83081055 C220.42219734 112.09937508 216.41613526 108.85406397 212.33764648 105.5769043 C209.46328728 103.25058958 206.65647302 100.8580206 203.84545898 98.45581055 C137.11928044 42.79303985 46.89786218 7.74950185 -39.86157227 4.5144043 C-42.59204102 4.20581055 -42.59204102 4.20581055 -45.59204102 2.20581055 C-30.36742512 0.68769669 -15.2994229 -0.09307542 0 0 Z " fill="#5BB6C6" transform="translate(1015.592041015625,1058.794189453125)"/>
<path d="M0 0 C57.42 0 114.84 0 174 0 C177.96 6.27 181.92 12.54 186 19 C188.80090457 23.32104309 191.60811973 27.63537686 194.4375 31.9375 C195.5333484 33.6087301 196.62919398 35.27996207 197.72470093 36.95141602 C198.80493313 38.59948295 199.88561677 40.24725395 200.96630859 41.89501953 C203.9048249 46.38146015 206.82918319 50.87702279 209.75 55.375 C210.26925049 56.17454102 210.78850098 56.97408203 211.32348633 57.79785156 C212.35930071 59.39300896 213.39502727 60.98822339 214.43066406 62.58349609 C216.05433278 65.08366301 217.67931967 67.58296864 219.3046875 70.08203125 C224.82682661 78.57276599 230.34140414 87.06826053 235.84082031 95.57373047 C241.54471577 104.3927671 247.27359596 113.19556987 253 122 C259.62402343 132.18453309 266.24425119 142.37138923 272.84082031 152.57373047 C278.54471577 161.3927671 284.27359596 170.19556987 290 179 C296.62402343 189.18453309 303.24425119 199.37138923 309.84082031 209.57373047 C315.54471577 218.3927671 321.27359596 227.19556987 327 236 C331.3352098 242.6654486 335.66912125 249.33173632 340 256 C340.52464844 256.80759766 341.04929687 257.61519531 341.58984375 258.44726562 C343.10256029 260.7766982 344.61399637 263.10695606 346.125 265.4375 C346.57439941 266.12932373 347.02379883 266.82114746 347.48681641 267.53393555 C347.90624512 268.18144775 348.32567383 268.82895996 348.7578125 269.49609375 C349.1202002 270.05482178 349.48258789 270.6135498 349.85595703 271.18920898 C351.27537647 273.43586582 352.63273603 275.72122671 354 278 C354.33 186.26 354.66 94.52 355 0 C412.42 0 469.84 0 529 0 C529 182.16 529 364.32 529 552 C471.58 552 414.16 552 355 552 C346.83016473 539.74524709 338.66653774 527.49016566 330.57470703 515.18432617 C320.46978721 499.82182708 310.34194017 484.47576146 300.125 469.1875 C293.77667409 459.68633503 287.46795101 450.16310145 281.24389648 440.57983398 C274.43555505 430.10777833 267.56104018 419.67933284 260.6875 409.25 C260.05012909 408.28287079 259.41275818 407.31574158 258.756073 406.31930542 C250.66653858 394.04740922 242.54722197 381.79647144 234.37890625 369.5769043 C228.9403706 361.43231948 223.55540653 353.25370495 218.1875 345.0625 C209.92091414 332.44889508 201.64290119 319.84289351 193.34854126 307.24752808 C192.03846786 305.25771318 190.72887296 303.26758315 189.41976929 301.27713013 C187.5805531 298.48081787 185.73970254 295.68558845 183.8984375 292.890625 C183.34625046 292.05041306 182.79406342 291.21020111 182.22514343 290.3445282 C181.71175919 289.56599991 181.19837494 288.78747162 180.66943359 287.98535156 C180.22425385 287.30909729 179.7790741 286.63284302 179.32040405 285.93609619 C177.94151325 283.91424142 176.46837501 281.95783335 175 280 C174.505 414.64 174.505 414.64 174 552 C116.58 552 59.16 552 0 552 C0 369.84 0 187.68 0 0 Z " fill="#FFFFFF" transform="translate(817,2926)"/>
<path d="M0 0 C359.60057061 0 359.60057061 0 420 58 C420.56122559 58.53713623 421.12245117 59.07427246 421.70068359 59.62768555 C452.80132072 89.95783056 466.53915611 135.83482028 467.23706055 178.27636719 C467.35276176 203.18924039 463.61350501 228.26043732 453 251 C452.70899414 251.63663574 452.41798828 252.27327148 452.11816406 252.92919922 C444.92922229 268.54327645 435.58798776 282.32151908 424 295 C423.30849854 295.75941895 423.30849854 295.75941895 422.60302734 296.53417969 C402.68009998 318.11330867 377.2129341 330.90733745 350 341 C351.55753567 346.56774247 354.22658101 351.17546492 357.125 356.125 C358.21378587 358.00767129 359.30231396 359.89049168 360.390625 361.7734375 C360.97392578 362.77858398 361.55722656 363.78373047 362.15820312 364.81933594 C365.07703918 369.85997699 367.96927426 374.91581022 370.859375 379.97296143 C371.53943351 381.16285947 372.21977453 382.3525961 372.90039062 383.54217529 C377.69186851 391.91731723 382.42817399 400.32129489 387.125 408.75 C391.63770352 416.84723974 396.24138757 424.88279297 400.9375 432.875 C406.57961427 442.47718607 412.01402469 452.18220327 417.39428711 461.93310547 C421.49727206 469.34916185 425.7025647 476.69508775 430 484 C435.65695352 493.61842125 441.11690456 503.33478193 446.51098633 513.1027832 C450.97629795 521.18301043 455.51783965 529.21519025 460.14501953 537.20385742 C460.59603027 537.98607666 461.04704102 538.7682959 461.51171875 539.57421875 C461.89803467 540.24026123 462.28435059 540.90630371 462.68237305 541.5925293 C464.55274524 545.00993529 466.2577626 548.51552519 468 552 C404.97 552 341.94 552 277 552 C267.8169473 535.92965778 267.8169473 535.92965778 264.6328125 529.64453125 C264.27167358 528.93888535 263.91053467 528.23323944 263.53845215 527.50621033 C262.78279025 526.02898977 262.02853701 524.55104776 261.2756958 523.0723877 C259.30514076 519.20235263 257.32361003 515.33793675 255.34375 511.47265625 C254.76821884 510.34795425 254.76821884 510.34795425 254.18106079 509.20053101 C250.62526284 502.25589257 247.00044345 495.34921129 243.3515625 488.453125 C240.54432662 483.14761816 237.77331263 477.82329464 235 472.5 C231.34795015 465.49223144 227.68536573 458.4903066 224 451.5 C219.79694496 443.52775367 215.62612488 435.53896043 211.4609375 427.546875 C208.320727 421.52411229 205.167673 415.5083604 202 409.5 C197.85562141 401.63904965 193.73968929 393.76350049 189.63671875 385.88085938 C184.78733152 376.57140191 179.88904354 367.28918272 175 358 C174.505 454.03 174.505 454.03 174 552 C116.58 552 59.16 552 0 552 C0 369.84 0 187.68 0 0 Z M174 146 C174 176.36 174 206.72 174 238 C193.42875 238.0928125 193.42875 238.0928125 213.25 238.1875 C219.35097168 238.22846802 219.35097168 238.22846802 225.57519531 238.27026367 C229.26864246 238.28030613 229.26864246 238.28030613 232.96209717 238.28633118 C234.58826166 238.29089316 236.21441695 238.3013498 237.84051514 238.31672668 C252.94236099 238.4522104 267.41037564 237.41308221 279.32421875 226.9609375 C289.1738505 216.65614717 291.50110009 203.19917829 291.25390625 189.33984375 C290.18896581 175.33178098 285.51855804 164.40056759 275 155 C261.86611161 146.25018888 247.33653746 145.5546119 232.10546875 145.70703125 C230.60958188 145.7114556 229.11369032 145.71450779 227.61779785 145.71618652 C222.14095994 145.73175887 216.6642222 145.77364174 211.1875 145.8125 C192.7796875 145.9053125 192.7796875 145.9053125 174 146 Z " fill="#FFFFFF" transform="translate(2008,2926)"/>
<path d="M0 0 C66.33 0 132.66 0 201 0 C208.59 21.12 216.18 42.24 224 64 C230.73074978 82.34919075 230.73074978 82.34919075 237.48046875 100.69140625 C242.52143143 114.37839957 247.4793199 128.09535022 252.4375 141.8125 C259.09947155 160.23852875 265.77555001 178.65916793 272.5 197.0625 C272.88601379 198.11902771 273.27202759 199.17555542 273.66973877 200.26409912 C278.12048943 212.44128436 282.59015154 224.61136302 287.08203125 236.7734375 C288.82559298 241.49476503 290.56913869 246.21609846 292.3125 250.9375 C292.74755859 252.11563263 293.18261719 253.29376526 293.63085938 254.50759888 C300.74428331 273.78040052 307.74236733 293.09296808 314.69208145 312.42518234 C321.54299617 331.48193239 328.47606733 350.50614833 335.5 369.5 C342.76048873 389.13353758 349.91888425 408.80128356 357 428.5 C364.29080455 448.78157364 371.66035781 469.03170712 379.125 489.25 C380.00415365 491.63232302 380.8833041 494.01464721 381.76245117 496.39697266 C383.41632344 500.87773095 385.07058226 505.35834633 386.72509766 509.83886719 C387.48340966 511.89257398 388.24171088 513.94628476 389 516 C389.35012146 516.94814575 389.70024292 517.8962915 390.06097412 518.87316895 C391.89033798 523.82901191 393.71544521 528.7863661 395.53192139 533.74694824 C396.04466668 535.14481963 396.55914004 536.54205861 397.07550049 537.93859863 C397.75920752 539.7881572 398.4364679 541.6400952 399.11328125 543.4921875 C399.66689331 544.99821533 399.66689331 544.99821533 400.23168945 546.53466797 C401 549 401 549 401 552 C340.61 552 280.22 552 218 552 C208.89993895 524.69981685 199.92143793 497.35907631 191 470 C130.61 469.67 70.22 469.34 8 469 C7.34 471.97 6.68 474.94 6 478 C5.2295404 480.58875575 4.43703962 483.14625374 3.58569336 485.70703125 C3.35292191 486.41874985 3.12015045 487.13046844 2.88032532 487.86375427 C2.1210743 490.18142097 1.35565516 492.49699357 0.58984375 494.8125 C0.05672111 496.43382368 -0.47610593 498.05524458 -1.00865173 499.67675781 C-2.11965462 503.05640805 -3.23362347 506.43506097 -4.34985352 509.81298828 C-5.78295583 514.15036663 -7.20943668 518.48988821 -8.63385868 522.8301239 C-9.73046727 526.16960795 -10.83006317 529.50810207 -11.93063164 532.84628296 C-12.45815528 534.44726548 -12.98484587 536.04852272 -13.51069832 537.65005493 C-14.24252047 539.87707348 -14.97823753 542.10276593 -15.71508789 544.328125 C-15.93276825 544.99299423 -16.15044861 545.65786346 -16.37472534 546.34288025 C-17.8856372 550.8856372 -17.8856372 550.8856372 -19 552 C-21.35287293 552.09763101 -23.67634686 552.12997445 -26.02967834 552.12025452 C-26.7737393 552.12110894 -27.51780025 552.12196337 -28.28440851 552.12284368 C-30.7964818 552.12450071 -33.30848942 552.1189735 -35.82055664 552.11352539 C-37.61378477 552.11324354 -39.40701302 552.11340121 -41.20024109 552.1139679 C-46.08433365 552.11425596 -50.96840187 552.10835786 -55.85248876 552.10139394 C-60.9507658 552.09516181 -66.04904334 552.09455671 -71.14732361 552.09336853 C-80.80877159 552.0902548 -90.47020832 552.08204084 -100.13165134 552.07201904 C-111.12783623 552.06085921 -122.12402163 552.05534778 -133.12021077 552.05032361 C-155.74681343 552.03985826 -178.37340608 552.02225801 -201 552 C-200.52884537 550.41509384 -200.05653884 548.83053008 -199.58375549 547.24610901 C-199.32086511 546.36366799 -199.05797472 545.48122698 -198.78711796 544.57204533 C-197.71872516 541.08088537 -196.51882305 537.64750429 -195.27734375 534.21484375 C-195.02046783 533.49841202 -194.76359192 532.78198029 -194.49893188 532.0438385 C-193.64803586 529.67399921 -192.79296586 527.30569319 -191.9375 524.9375 C-191.31695293 523.21420098 -190.69642951 521.49089345 -190.07592773 519.76757812 C-184.55077143 504.44467999 -178.93314358 489.15584567 -173.30615234 473.87011719 C-167.27760717 457.49217506 -161.28158966 441.10253242 -155.29956818 424.70755768 C-154.56181108 422.68561189 -153.82397824 420.66369376 -153.08612061 418.64178467 C-150.89186047 412.62895382 -148.69777724 406.61605846 -146.5039196 400.60308075 C-142.06723354 388.44294614 -137.62876286 376.28346385 -133.1875 364.125 C-132.79986481 363.0637793 -132.41222961 362.00255859 -132.0128479 360.90917969 C-126.07894079 344.6664383 -120.12051934 328.43280463 -114.15240479 312.2026062 C-107.59727218 294.37340585 -101.07467203 276.53242325 -94.5625 258.6875 C-94.31861164 258.01920795 -94.07472328 257.35091591 -93.82344437 256.66237259 C-91.38334589 249.97607812 -88.94355543 243.28967128 -86.50396252 236.60319233 C-82.06725074 224.44302469 -77.62877653 212.28350128 -73.1875 200.125 C-72.79986481 199.0637793 -72.41222961 198.00255859 -72.0128479 196.90917969 C-66.44271004 181.66217514 -60.8521442 166.42277012 -55.25 151.1875 C-46.67809174 127.87536697 -38.15756387 104.54461504 -29.64453125 81.2109375 C-19.76699602 54.13917426 -9.88265937 27.06989307 0 0 Z M99 188 C87.4055364 223.19542632 75.889088 258.41158939 64.64593506 293.72116089 C62.64089699 300.01083554 60.61360625 306.29296702 58.5703125 312.5703125 C58.30495697 313.38619843 58.03960144 314.20208435 57.76620483 315.04269409 C56.5464661 318.79131674 55.32347816 322.53883004 54.09521484 326.28466797 C53.67796363 327.56474727 53.26080244 328.84485592 52.84375 330.125 C52.48474609 331.22070312 52.12574219 332.31640625 51.75585938 333.4453125 C50.9054287 335.87560956 50.9054287 335.87560956 51 338 C83.34 338 115.68 338 149 338 C141.0011884 312.77297879 132.97321618 287.57275031 124.68133545 262.44311523 C123.68553659 259.42344325 122.69193315 256.40305093 121.69836998 253.38264275 C114.52244738 231.56944782 107.27584027 209.78005143 100 188 C99.67 188 99.34 188 99 188 Z " fill="#FFFFFF" transform="translate(2691,2926)"/>
<path d="M0 0 C0.90834595 0.00093658 1.81669189 0.00187317 2.75256348 0.00283813 C78.2841539 0.17141319 146.45568531 24.80955874 200.75 77.6875 C205.55752186 82.56419483 209.82232088 87.81708638 214.0625 93.1875 C214.83207031 94.12851563 215.60164063 95.06953125 216.39453125 96.0390625 C244.32856268 130.96788371 261.3031414 174.25166912 268.0625 218.1875 C207.6725 218.1875 147.2825 218.1875 85.0625 218.1875 C81.1025 211.2575 81.1025 211.2575 77.0625 204.1875 C61.50363808 181.9605544 41.17957105 167.30035313 14.2421875 162.5078125 C-8.90362068 159.09439028 -33.11956798 162.16013043 -52.515625 176.03125 C-55.06950662 178.00541616 -57.51379153 180.05589972 -59.9375 182.1875 C-60.68773437 182.84234375 -61.43796875 183.4971875 -62.2109375 184.171875 C-85.08126074 205.51751003 -93.86726179 239.12926361 -95.06542969 269.421875 C-95.91736573 307.6594201 -90.58053823 344.27062206 -64.9375 374.1875 C-64.41929687 374.80238281 -63.90109375 375.41726563 -63.3671875 376.05078125 C-50.90021526 389.67674337 -30.9582936 398.16843772 -12.75634766 399.40332031 C14.97394512 400.50256762 39.97590766 394.93834187 61.12890625 375.93359375 C71.38841553 366.43477675 78.16850959 355.25198323 85.0625 343.1875 C145.4525 343.1875 205.8425 343.1875 268.0625 343.1875 C266.70936064 351.98290585 265.22062918 360.23512506 262.875 368.75 C262.56747803 369.8740625 262.25995605 370.998125 261.94311523 372.15625 C243.69697413 437.65092913 203.77339235 492.59414747 144.546875 526.63330078 C109.51097217 546.34771313 70.8698187 556.33215686 31.0625 560.1875 C30.34255859 560.25952637 29.62261719 560.33155273 28.88085938 560.40576172 C-42.76625316 567.24744394 -118.09926551 550.30981784 -174.9375 505.1875 C-175.48680176 504.7553418 -176.03610352 504.32318359 -176.60205078 503.87792969 C-191.74833573 491.86327294 -205.66896158 477.9087184 -216.9375 462.1875 C-217.38641602 461.56697754 -217.83533203 460.94645508 -218.29785156 460.30712891 C-249.06195227 417.51471629 -266.8473608 366.70764235 -270.9375 314.1875 C-271.06560059 312.5940979 -271.06560059 312.5940979 -271.19628906 310.96850586 C-271.93104744 301.05651006 -272.18003194 291.18643871 -272.1875 281.25 C-272.18817474 280.4303476 -272.18884949 279.61069519 -272.18954468 278.76620483 C-272.09684956 206.97080282 -251.11389643 135.26253474 -202.05859375 81.53125 C-200.11918497 79.38825688 -198.24420701 77.20405362 -196.375 75 C-192.86959326 70.99153944 -189.00694738 67.60938038 -184.9375 64.1875 C-183.55111328 62.96933594 -183.55111328 62.96933594 -182.13671875 61.7265625 C-131.71211508 17.63319097 -65.94371232 -0.08802325 0 0 Z " fill="#FFFFFF" transform="translate(1678.9375,2920.8125)"/>
<path d="M0 0 C2.51726031 0.5990848 5.03535748 1.19454898 7.55352783 1.78979492 C73.49457749 17.43804996 138.37425846 38.2266756 201.5881958 62.6159668 C202.66511688 63.03111542 202.66511688 63.03111542 203.76379395 63.45465088 C212.43079148 66.80275755 221.05061715 70.2602014 229.63726807 73.80981445 C231.71056105 74.66652994 233.78511073 75.52015984 235.85968018 76.3737793 C274.23336425 92.18920675 311.88527513 109.54483101 349.29217529 127.51385498 C351.53873097 128.5922232 353.78639694 129.66823843 356.03448486 130.7434082 C369.58458827 137.22561064 383.09717596 143.7435472 396.34210205 150.8347168 C400.63998812 153.1292404 404.96739268 155.36271735 409.30303955 157.5847168 C409.99664078 157.94019592 410.690242 158.29567505 411.40486145 158.66192627 C412.84127521 159.39797467 414.27770221 160.13399723 415.71414185 160.86999512 C427.59071817 166.95871096 439.39207731 173.1517583 451.0803833 179.59643555 C456.92829222 182.8171945 462.8222103 185.95062476 468.71478271 189.08856201 C479.8184105 195.00488327 490.82040064 201.07902111 501.7522583 207.30737305 C508.1457432 210.94564847 514.58677893 214.49644029 521.0256958 218.0534668 C530.8172715 223.4705137 540.51418617 229.02941651 550.16217041 234.69775391 C555.93015754 238.08183835 561.72759614 241.39512732 567.5881958 244.6159668 C575.51727083 248.9775426 583.33433067 253.51923377 591.1428833 258.0925293 C598.60736414 262.46404515 606.09161238 266.7997521 613.5881958 271.1159668 C624.95580142 277.66464099 636.29383436 284.26276678 647.62042236 290.88208008 C652.60810539 293.79607522 657.59829764 296.70576707 662.5881958 299.6159668 C664.59471214 300.78652955 666.60122257 301.95710246 668.60772705 303.12768555 C672.54212812 305.42280616 676.47705489 307.71702151 680.41241455 310.01049805 C690.69251871 316.00264432 700.96587075 322.00609286 711.22973633 328.02600098 C716.11261472 330.88975487 720.99616986 333.75235466 725.87988281 336.61468506 C727.50684294 337.568284 729.13370363 338.52205258 730.76055908 339.47583008 C762.26762575 357.93775835 794.05047054 375.85069664 826.19976807 393.17041016 C830.36127518 395.41301896 834.5183846 397.66347726 838.67266846 399.91943359 C856.49974534 409.56842155 874.54589572 418.73461389 892.69238281 427.76586914 C895.64783209 429.23816172 898.60101235 430.71497423 901.5542078 432.19178104 C924.55492896 443.69177899 947.68576751 454.88133024 971.0256958 465.6784668 C972.32337891 466.27899872 972.32337891 466.27899872 973.64727783 466.8916626 C1008.43087939 482.97805416 1043.4550118 498.42618981 1078.73101807 513.40252686 C1081.45418001 514.55905045 1084.1765858 515.71733376 1086.89874268 516.8762207 C1123.81944151 532.58709498 1161.10741437 547.29661324 1198.5881958 561.6159668 C1199.89038055 562.11350464 1199.89038055 562.11350464 1201.21887207 562.62109375 C1283.31480344 593.95823474 1366.75804878 620.27722018 1452.08575439 641.26049805 C1459.25841912 643.024982 1466.42398968 644.81747666 1473.5881958 646.6159668 C1473.5881958 646.9459668 1473.5881958 647.2759668 1473.5881958 647.6159668 C1438.12810398 647.96385709 1402.92839064 647.94638825 1367.5881958 644.6159668 C1366.68955811 644.5334668 1365.79092041 644.4509668 1364.86505127 644.3659668 C1317.6296339 640.02861609 1270.88106651 632.35174155 1224.36474609 623.16296387 C1221.69548488 622.63710339 1219.02510322 622.11737645 1216.35430908 621.59936523 C1123.57084619 603.53582503 1032.04234257 575.92128948 767.52911377 470.05395508 C763.62550859 468.14525223 759.70126716 466.28145679 755.7756958 464.41845703 C738.17771148 456.0632999 720.75668219 447.36947779 703.5491333 438.23706055 C698.87591016 435.75947119 694.17918297 433.32857696 689.48077393 430.89916992 C678.66032304 425.30102074 667.92277119 419.57388598 657.2444458 413.7097168 C652.16867065 410.92484157 647.06876762 408.18659068 641.96490479 405.45361328 C631.65814457 399.93313788 621.42972356 394.30066944 611.27203369 388.51074219 C604.10107581 384.43674059 596.8606199 380.50554349 589.5881958 376.6159668 C580.31637283 371.65626865 571.12841402 366.57181804 561.99053955 361.36987305 C555.56030699 357.71451263 549.09075391 354.14091279 542.5881958 350.6159668 C534.23455431 346.08535437 525.94863083 341.44667129 517.68585205 336.75268555 C509.85379902 332.3117225 501.97721769 327.95449684 494.0881958 323.6159668 C485.39242476 318.83325729 476.71788576 314.01732522 468.0881958 309.1159668 C458.31307563 303.56592063 448.48186348 298.1215168 438.6338501 292.70239258 C437.39856077 292.02257711 436.16329058 291.34272686 434.92803955 290.6628418 C434.31623337 290.32610443 433.70442719 289.98936707 433.07408142 289.64242554 C427.79395109 286.7339735 422.52771225 283.80107353 417.26275635 280.86523438 C404.18162896 273.5728217 391.02805052 266.42594944 377.82647705 259.35424805 C374.56639874 257.60426632 371.31100023 255.8458717 368.0569458 254.0847168 C355.42978456 247.25435617 342.75159434 240.53611328 329.99835205 233.9440918 C324.80280128 231.25544947 319.62610002 228.53206685 314.45147705 225.8034668 C274.99228716 205.01043667 235.10904161 184.93481158 194.49560547 166.48468018 C192.43113205 165.54443346 190.36911564 164.5989401 188.30743408 163.65258789 C98.91365708 122.64400847 6.22871952 88.36891512 -567.4118042 -21.3840332 C-567.4118042 -22.0440332 -567.4118042 -22.7040332 -567.4118042 -23.3840332 C-528.02678484 -29.5183324 -488.72359041 -34.5743127 -448.9743042 -37.6340332 C-447.89395905 -37.71720795 -446.81361389 -37.80038269 -445.70053101 -37.88607788 C-425.60051665 -39.41526177 -405.50006915 -40.42726215 -385.3493042 -40.9465332 C-384.54709442 -40.96737976 -383.74488464 -40.98822632 -382.91836548 -41.00970459 C-288.44079587 -43.40633957 -194.03801356 -36.03805494 0 0 Z " fill="#FFFFFF" transform="translate(760.4118041992188,1374.384033203125)"/>
<path d="M0 0 C128.7 0 257.4 0 390 0 C390 45.54 390 91.08 390 138 C318.72 138 247.44 138 174 138 C174 162.75 174 187.5 174 213 C225.15 213 276.3 213 329 213 C329 256.23 329 299.46 329 344 C277.85 344 226.7 344 174 344 C174 412.64 174 481.28 174 552 C116.58 552 59.16 552 0 552 C0 369.84 0 187.68 0 0 Z " fill="#FFFFFF" transform="translate(3130,2926)"/>
<path d="M0 0 C153.12 0 306.24 0 464 0 C464 45.54 464 91.08 464 138 C415.82 138 367.64 138 318 138 C318 274.62 318 411.24 318 552 C260.91 552 203.82 552 145 552 C145 415.38 145 278.76 145 138 C97.15 138 49.3 138 0 138 C0 92.46 0 46.92 0 0 Z " fill="#FFFFFF" transform="translate(3546,2926)"/>
<path d="M0 0 C1.53721137 -0.00702676 3.07442246 -0.01411353 4.6116333 -0.02125549 C9.50541604 -0.04066831 14.39915139 -0.04569112 19.29296875 -0.046875 C20.54650209 -0.04753778 20.54650209 -0.04753778 21.82535934 -0.04821396 C48.8172435 -0.05569162 75.60688908 0.45665403 102.48046875 3.203125 C103.75534149 3.33040985 103.75534149 3.33040985 105.05596924 3.46026611 C189.56723315 11.92613456 273.02175214 31.74775464 406.48046875 86.203125 C408.14601807 86.96375244 408.14601807 86.96375244 409.84521484 87.73974609 C434.12475067 98.85072012 458.40940253 110.14314504 481.91650391 122.82324219 C484.88450064 124.42056817 487.8600259 126.00340731 490.8359375 127.5859375 C512.90928266 139.3408165 534.9056066 151.23887081 556.46289062 163.92089844 C562.84344249 167.67428877 569.25834361 171.36130859 575.69799805 175.01220703 C587.08062174 181.46572967 598.33935267 188.08625305 609.50292969 194.91183472 C617.36419485 199.71824983 625.25927968 204.45526738 633.23046875 209.078125 C642.76344844 214.60673653 652.2564534 220.19928477 661.73046875 225.828125 C662.42162781 226.23863098 663.11278687 226.64913696 663.82489014 227.07208252 C671.06553415 231.37361306 678.29826408 235.6874157 685.50952148 240.03808594 C712.7969793 256.49745793 740.53068669 272.23648828 768.85351562 286.84326172 C772.03124591 288.4882392 775.19664765 290.15569383 778.35986328 291.82836914 C781.50395468 293.49065621 784.65259887 295.14421213 787.80175781 296.796875 C789.67938224 297.78257649 791.55627352 298.76967518 793.43261719 299.7578125 C824.65364789 316.17269566 856.37875445 331.67887721 888.4821167 346.29217529 C890.67690683 347.29267139 892.87003496 348.29675397 895.06298828 349.30126953 C967.49453743 382.46285905 1041.3972445 413.75123517 1117.74609375 436.80078125 C1118.50801025 437.0323291 1119.26992676 437.26387695 1120.05493164 437.50244141 C1121.98984034 438.08682631 1123.92834859 438.65925855 1125.8671875 439.23046875 C1128.48046875 440.203125 1128.48046875 440.203125 1129.48046875 442.203125 C1040.88655584 450.16376815 951.45963855 435.45866798 777.45996094 385.88293457 C775.5900456 385.24075657 773.71888815 384.60219871 771.84765625 383.96386719 C713.73370387 364.05752188 657.61547223 338.13923106 603.48046875 309.203125 C602.44196777 308.64898926 601.4034668 308.09485352 600.33349609 307.52392578 C566.31367506 289.36472996 532.5236596 270.80583475 498.82324219 252.06201172 C492.08597517 248.31547717 485.34682825 244.57232309 478.60717773 240.83007812 C472.96699578 237.6978685 467.32900122 234.56184424 461.6953125 231.41796875 C447.42157498 223.45842544 433.08133987 215.63582257 418.67480469 207.91943359 C415.54514171 206.23787362 412.42198164 204.54486465 409.30078125 202.84765625 C391.92878922 193.41332617 374.38692668 184.32792145 356.76733398 175.36639404 C355.24638653 174.59272751 353.72571444 173.8185194 352.20532227 173.04376221 C331.40567319 162.44538234 310.45934021 152.30695311 289.12548828 142.82714844 C285.89182631 141.38640367 282.66713004 139.92791348 279.4453125 138.4609375 C248.78801471 124.60498986 217.22922221 112.31242978 185.48046875 101.203125 C184.66012146 100.91542236 183.83977417 100.62771973 182.99456787 100.33129883 C83.71779581 65.55079285 -18.18907812 42.13917511 -154.51953125 21.203125 C-154.18953125 20.543125 -153.85953125 19.883125 -153.51953125 19.203125 C-151.09278753 18.51945923 -148.72857984 17.96493945 -146.26171875 17.46875 C-145.50425858 17.3102356 -144.7467984 17.15172119 -143.96638489 16.98840332 C-141.44456698 16.46553557 -138.92002967 15.95790058 -136.39453125 15.453125 C-135.08653061 15.18900818 -135.08653061 15.18900818 -133.75210571 14.91955566 C-103.67394651 8.86840531 -73.55479807 4.66295571 -42.99609375 1.96484375 C-42.28903793 1.90159409 -41.58198212 1.83834442 -40.85350037 1.7731781 C-27.23827252 0.6138704 -13.6602982 0.03897767 0 0 Z " fill="#FFFFFF" transform="translate(484.51953125,1505.796875)"/>
<path d="M0 0 C57.09 0 114.18 0 173 0 C173 182.16 173 364.32 173 552 C115.91 552 58.82 552 0 552 C0 369.84 0 187.68 0 0 Z " fill="#FFFFFF" transform="translate(567,2926)"/>
<path d="M0 0 C17.49 0 34.98 0 53 0 C61.3834757 18.26400063 69.72311079 36.53907258 77.86083984 54.91345215 C83.19715381 66.96207366 88.58336806 78.98727789 94 91 C100.03438703 104.38492601 106.02801193 117.78700199 111.97949219 131.20898438 C117.27894319 143.15779629 122.62801796 155.08363405 128 167 C133.70303282 179.6507173 139.37488213 192.31444373 145 205 C150.60663219 217.6427994 156.25680143 230.26530913 161.9375 242.875 C162.68477824 244.53464763 163.43201144 246.19431555 164.17919922 247.85400391 C167.26806124 254.71460419 170.35706859 261.57513506 173.45068359 268.43359375 C175.46284303 272.89516057 177.47120543 277.35841979 179.4770813 281.82281494 C180.23831639 283.51528046 181.00089596 285.20714194 181.76486206 286.89837646 C182.81802404 289.23020571 183.86659241 291.56404711 184.9140625 293.8984375 C185.22872971 294.59223511 185.54339691 295.28603271 185.86759949 296.00085449 C188 300.77191898 188 300.77191898 188 303 C188.66 303 189.32 303 190 303 C190.37898438 301.77667969 190.75796875 300.55335938 191.1484375 299.29296875 C193.21525817 293.10814625 195.92261726 287.24071849 198.625 281.3125 C199.19680048 280.04897806 199.76807368 278.78521739 200.33886719 277.52124023 C201.25376518 275.49557547 202.16905494 273.47009515 203.0859375 271.44532776 C206.47640033 263.95785726 209.83010909 256.45404562 213.1831665 248.94976807 C214.98556063 244.91652581 216.78980833 240.88411276 218.59375 236.8515625 C219.32683748 235.21257162 220.05991036 233.5735742 220.79296875 231.93457031 C221.15696777 231.12072876 221.5209668 230.30688721 221.89599609 229.46838379 C222.26031738 228.65381714 222.62463867 227.83925049 223 227 C225.91652244 220.47910215 228.83313496 213.95824461 231.75 207.4375 C232.10670776 206.64006378 232.46341553 205.84262756 232.83093262 205.02102661 C237.90068259 193.68782262 242.97641801 182.35732257 248.05664062 171.02880859 C254.65088819 156.3218477 261.22989643 141.608068 267.81054688 126.89501953 C271.72556277 118.14192638 275.64155183 109.38926855 279.55737305 100.63653564 C280.61637997 98.26941199 281.67538016 95.90228532 282.734375 93.53515625 C283.08419434 92.75321899 283.43401367 91.97128174 283.79443359 91.16564941 C285.95984108 86.32531218 288.12501159 81.48486902 290.29000854 76.64434814 C291.74953704 73.38113948 293.2091417 70.11796488 294.66876221 66.85479736 C295.38652394 65.25011469 296.10425694 63.64541916 296.82196045 62.04071045 C300.44716366 53.93529345 304.074237 45.83073476 307.7109375 37.73046875 C308.57365419 35.80856552 309.43636479 33.88665956 310.29907227 31.9647522 C311.10741541 30.16416963 311.91600961 28.36369976 312.72460938 26.56323242 C316.15006694 18.92593893 319.5230077 11.26824941 322.828125 3.578125 C324 1 324 1 325 0 C342.49 0 359.98 0 378 0 C378 122.1 378 244.2 378 370 C361.5 370 345 370 328 370 C327.505 236.845 327.505 236.845 327 101 C312.03176472 134.2519388 312.03176472 134.2519388 297.1875 167.55859375 C296.50782272 169.09098761 295.82813472 170.62337671 295.1484375 172.15576172 C294.80039063 172.94053894 294.45234375 173.72531616 294.09375 174.53387451 C290.43942551 182.77343817 286.78329396 191.01219796 283.125 199.25 C282.70303345 200.20035126 282.28106689 201.15070251 281.84631348 202.12985229 C275.53173832 216.34789243 269.1615155 230.53997813 262.76028442 244.71917725 C256.73116324 258.08076329 250.81942798 271.49107161 244.94888306 284.92297363 C238.30921209 300.10653818 231.50645393 315.21264004 224.65527344 330.30175781 C218.66826575 343.49165564 212.79722481 356.72519536 207 370 C195.12 370 183.24 370 171 370 C162.93449236 352.71676934 162.93449236 352.71676934 159.58203125 345.296875 C159.20306702 344.45982529 158.82410278 343.62277557 158.43365479 342.76036072 C157.22552134 340.09072818 156.01886287 337.42043305 154.8125 334.75 C154.39281952 333.82160309 153.97313904 332.89320618 153.54074097 331.93667603 C147.22190555 317.95673023 140.94933483 303.95756043 134.73974609 289.92871094 C130.95822401 281.38699183 127.16678896 272.84966517 123.375 264.3125 C122.94651764 263.347677 122.51803528 262.382854 122.0765686 261.38879395 C115.63572799 246.88954243 109.14924604 232.41147097 102.62762451 217.94839478 C97.05249714 205.58334463 91.52196562 193.19935449 86.02444458 180.79962158 C79.92176994 167.03771888 73.75192944 153.30657282 67.55273438 139.58789062 C61.61498496 126.42780906 55.81553669 113.21712885 50 100 C49.67 189.1 49.34 278.2 49 370 C32.83 370 16.66 370 0 370 C0 247.9 0 125.8 0 0 Z " fill="#FFFFFF" transform="translate(2833,2422)"/>
<path d="M0 0 C186.12 0 372.24 0 564 0 C564 26.73 564 53.46 564 81 C377.88 81 191.76 81 0 81 C0 54.27 0 27.54 0 0 Z " fill="#EF4427" transform="translate(567,2571)"/>
<path d="M0 0 C186.12 0 372.24 0 564 0 C564 26.73 564 53.46 564 81 C377.88 81 191.76 81 0 81 C0 54.27 0 27.54 0 0 Z " fill="#EF4124" transform="translate(3456,2571)"/>
<path d="M0 0 C1.01037827 0.00222061 2.02075653 0.00444122 3.06175232 0.00672913 C4.77341331 0.00684242 4.77341331 0.00684242 6.51965332 0.00695801 C7.76129745 0.01211929 9.00294159 0.01728058 10.2822113 0.02259827 C12.17785072 0.02472069 12.17785072 0.02472069 14.11178589 0.02688599 C17.47705394 0.0315487 20.84225495 0.04053972 24.20750427 0.05158997 C27.63930175 0.06180606 31.07110614 0.06638403 34.50291443 0.07142639 C41.2405633 0.08248071 47.9781803 0.09923742 54.71580505 0.12025452 C58.23527828 8.35388614 61.44217276 16.65758076 64.4540863 25.08900452 C65.1249846 26.95479761 65.79588405 28.82059029 66.46683311 30.68636513 C67.17225597 32.64974631 67.87621591 34.61364612 68.57972717 36.57771301 C70.05123232 40.68563274 71.5269656 44.79202505 73.00364685 48.89808655 C73.25079595 49.58533121 73.49794504 50.27257587 73.7525835 50.98064613 C74.2515679 52.36813856 74.7505662 53.75562597 75.24957848 55.14310837 C75.99667837 57.22076947 76.74340416 59.2985647 77.49005127 61.37638855 C81.64117338 72.92634009 85.82626705 84.46373717 90.02830505 95.99525452 C91.31246302 99.52118561 92.59627367 103.04724303 93.87986755 106.57337952 C94.19440887 107.43742401 94.5089502 108.30146851 94.83302307 109.19169617 C98.5371477 119.37113727 102.220555 129.55806518 105.90330505 139.74525452 C106.60773187 141.69365956 107.31215896 143.64206451 108.0165863 145.59046936 C109.1036699 148.5973667 110.19073429 151.60427098 111.27775574 154.6111908 C115.85845526 167.28189814 120.4424558 179.95141013 125.02830505 192.62025452 C125.47001038 193.84056366 125.9117157 195.0608728 126.36680603 196.31816101 C133.1845775 215.15167336 140.02619281 233.97642017 146.87828064 252.79747009 C151.76256193 266.21588268 156.63085678 279.63993257 161.47361755 293.07337952 C161.71623133 293.74634253 161.9588451 294.41930553 162.20881081 295.11266136 C164.78951827 302.27167883 167.36797809 309.43150094 169.94407654 316.59217834 C170.80667647 318.98829602 171.66938662 321.38437401 172.5322113 323.78041077 C172.94935898 324.9396254 173.36650665 326.09884003 173.79629517 327.29318237 C176.11099632 333.71319836 178.44888124 340.12406392 180.81297302 346.52601624 C181.06933375 347.22114413 181.32569448 347.91627203 181.58982372 348.63246441 C182.83436629 352.00665775 184.08211503 355.37959514 185.33581543 358.75039673 C185.99945351 360.54693947 185.99945351 360.54693947 186.67649841 362.379776 C187.07090622 363.44195847 187.46531403 364.50414093 187.87167358 365.59851074 C188.71580505 368.12025452 188.71580505 368.12025452 188.71580505 370.12025452 C171.22580505 370.12025452 153.73580505 370.12025452 135.71580505 370.12025452 C128.52830505 349.87025452 128.52830505 349.87025452 126.35569763 343.74427795 C119.87784502 325.51057299 113.28836121 307.32117925 106.71580505 289.12025452 C53.25580505 288.79025452 -0.20419495 288.46025452 -55.28419495 288.12025452 C-55.94419495 291.09025452 -56.60419495 294.06025452 -57.28419495 297.12025452 C-57.79176953 298.7797322 -58.3330304 300.42987522 -58.92897034 302.05970764 C-59.24040482 302.92008636 -59.55183929 303.78046509 -59.87271118 304.66691589 C-60.20572739 305.56933014 -60.53874359 306.47174438 -60.8818512 307.40150452 C-61.23247116 308.3657132 -61.58309113 309.32992187 -61.94433594 310.323349 C-63.07321296 313.42425882 -64.20980799 316.52227352 -65.34669495 319.62025452 C-66.12197288 321.74456984 -66.89671132 323.86908213 -67.6709137 325.99378967 C-68.81821636 329.14172235 -69.96605537 332.28945026 -71.11625671 335.43632507 C-73.22161845 341.19653039 -75.31321129 346.96115227 -77.3740387 352.73744202 C-78.00330261 354.49991272 -78.00330261 354.49991272 -78.64527893 356.29798889 C-79.38485037 358.37417915 -80.12274129 360.45096908 -80.85865784 362.52845764 C-81.33226746 363.85393616 -81.33226746 363.85393616 -81.81544495 365.20619202 C-82.07905823 365.94917542 -82.34267151 366.69215881 -82.61427307 367.45765686 C-83.28419495 369.12025452 -83.28419495 369.12025452 -84.28419495 370.12025452 C-85.91094272 370.21365885 -87.54173546 370.23770623 -89.17115784 370.23377991 C-90.21216141 370.23370438 -91.25316498 370.23362885 -92.32571411 370.23355103 C-93.45798935 370.22838974 -94.59026459 370.22322845 -95.7568512 370.21791077 C-97.48602028 370.21578835 -97.48602028 370.21578835 -99.25012207 370.21362305 C-102.94900558 370.20800457 -106.64782959 370.19544893 -110.34669495 370.18275452 C-112.84734512 370.1777419 -115.34799623 370.17317858 -117.84864807 370.16908264 C-123.99385083 370.15802914 -130.13901864 370.14127304 -136.28419495 370.12025452 C-135.62570619 364.17136462 -133.49446964 358.87624422 -131.40138245 353.31556702 C-130.99956757 352.23387238 -130.59775269 351.15217773 -130.1837616 350.03770447 C-129.30818722 347.68127866 -128.43035661 345.32569026 -127.55055237 342.97084045 C-125.14439091 336.52795155 -122.75693306 330.07814842 -120.37013245 323.62806702 C-119.99619732 322.61823635 -119.99619732 322.61823635 -119.61470795 321.58800507 C-114.14266551 306.8051971 -108.81310249 291.97245324 -103.50350189 277.1306839 C-95.61629229 255.08630074 -87.61913216 233.08698398 -79.49220276 211.12953186 C-72.47655588 192.16610597 -65.60017452 173.15604277 -58.78419495 154.12025452 C-51.13833114 132.7667509 -43.38925368 111.45562474 -35.51234436 90.18592834 C-30.23771526 75.93809313 -25.02380865 61.67061259 -19.89356995 47.37025452 C-19.62669373 46.62648056 -19.3598175 45.8827066 -19.08485413 45.11639404 C-16.45944256 37.7976759 -13.83893384 30.4772251 -11.22716904 23.15362549 C-10.26992699 20.4707446 -9.31062865 17.78860173 -8.35097504 15.10658264 C-7.68788506 13.25057416 -7.02796943 11.39343257 -6.36811829 9.53627014 C-5.9746521 8.43669983 -5.58118591 7.33712952 -5.17579651 6.20423889 C-4.83276489 5.24143005 -4.48973328 4.27862122 -4.13630676 3.28663635 C-2.9036891 0.15286862 -2.9036891 0.15286862 0 0 Z M25.71580505 62.12025452 C10.65737394 103.71747005 -4.24200142 145.37175775 -19.1096344 187.03749084 C-22.94685857 197.7892242 -26.78961452 208.53886905 -30.6552887 219.28041077 C-31.15836296 220.67882202 -31.15836296 220.67882202 -31.67160034 222.10548401 C-33.2203535 226.40987269 -34.77087578 230.71360981 -36.32447815 235.01625061 C-36.85797427 236.49751557 -37.39142467 237.97879699 -37.92481995 239.46009827 C-38.16748093 240.13001297 -38.41014191 240.79992767 -38.66015625 241.49014282 C-39.80312186 244.23676827 -39.80312186 244.23676827 -40.28419495 247.12025452 C3.27580505 247.12025452 46.83580505 247.12025452 91.71580505 247.12025452 C90.17295814 239.93567203 90.17295814 239.93567203 88.04612732 233.07435608 C87.72643982 232.18285355 87.40675232 231.29135101 87.07737732 230.37283325 C86.73247253 229.42838852 86.38756775 228.48394379 86.0322113 227.51087952 C85.66531189 226.49227341 85.29841248 225.4736673 84.9203949 224.42419434 C83.71136905 221.07105051 82.49477546 217.72070393 81.27830505 214.37025452 C80.4202176 211.99391916 79.56272483 209.617369 78.70579529 207.24061584 C76.92630346 202.30658441 75.14426323 197.37348486 73.3603363 192.4410553 C69.70075882 182.31732534 66.06947806 172.1834793 62.43946838 162.04911804 C61.27555717 158.80008386 60.11089104 155.55132119 58.94602966 152.30262756 C50.50796681 128.76671705 42.10190521 105.21938064 33.69725037 81.67152405 C31.37105244 75.15409464 29.04371302 68.63707331 26.71580505 62.12025452 C26.38580505 62.12025452 26.05580505 62.12025452 25.71580505 62.12025452 Z " fill="#FFFFFF" transform="translate(2394.284194946289,2421.8797454833984)"/>
<path d="M0 0 C66.33 0 132.66 0 201 0 C201 13.53 201 27.06 201 41 C150.84 41 100.68 41 49 41 C49 81.59 49 122.18 49 164 C93.88 164 138.76 164 185 164 C185 177.53 185 191.06 185 205 C140.12 205 95.24 205 49 205 C49 246.91 49 288.82 49 332 C99.16 332 149.32 332 201 332 C201 345.53 201 359.06 201 373 C134.67 373 68.34 373 0 373 C0 249.91 0 126.82 0 0 Z " fill="#FFFFFF" transform="translate(1816,2419)"/>
<path d="M0 0 C83.49 0 166.98 0 253 0 C253 13.2 253 26.4 253 40 C219.67 40 186.34 40 152 40 C152 149.56 152 259.12 152 372 C135.5 372 119 372 102 372 C102 262.44 102 152.88 102 40 C68.34 40 34.68 40 0 40 C0 26.8 0 13.6 0 0 Z " fill="#FFFFFF" transform="translate(1312,2420)"/>
<path d="M0 0 C0 0.33 0 0.66 0 1 C-139.59 1 -279.18 1 -423 1 C-423 0.67 -423 0.34 -423 0 C-395.49607693 -2.2103779 -367.99239034 -4.22597564 -340.4375 -5.6875 C-338.74862671 -5.77809189 -338.74862671 -5.77809189 -337.02563477 -5.87051392 C-242.05306604 -10.92581375 -146.64971103 -10.38238265 0 0 Z " fill="#FEFDFD" transform="translate(2740,697)"/>
<path d="M0 0 C0 0.33 0 0.66 0 1 C-2.43578787 1.53030068 -4.87305975 2.04952312 -7.3125 2.5625 C-8.00279297 2.71396484 -8.69308594 2.86542969 -9.40429688 3.02148438 C-12.75544066 3.71761569 -14.69534072 4.10155309 -18 3 C-15.94651665 2.10404387 -13.88174343 1.23393124 -11.8125 0.375 C-10.66394531 -0.11226562 -9.51539063 -0.59953125 -8.33203125 -1.1015625 C-4.61716894 -2.10322526 -3.30361309 -1.82911911 0 0 Z " fill="#4D939F" transform="translate(165,1265)"/>
</svg>
